<svg id="SvgjsSvg1000" xmlns="http://www.w3.org/2000/svg" version="1.1" xmlns:xlink="http://www.w3.org/1999/xlink" xmlns:svgjs="http://svgjs.com/svgjs" width="42" height="42" viewBox="0 0 42 42"><title>Эллипс 1 копия 3</title><desc>Created with Avocode.</desc><defs id="SvgjsDefs1001"><clipPath id="SvgjsClipPath1009"><path id="SvgjsPath1008" d="M1546 264C1557.6 264 1567 273.402 1567 285C1567 296.598 1557.6 306 1546 306C1534.4 306 1525 296.598 1525 285C1525 273.402 1534.4 264 1546 264Z " fill="#ffffff"></path></clipPath><linearGradient id="SvgjsLinearGradient1012" gradientUnits="userSpaceOnUse" x1="1553.6323468650069" y1="276" x2="1539.3676531349931" y2="293"><stop id="SvgjsStop1013" stop-opacity="1" stop-color="#fa9d3e" offset="0"></stop><stop id="SvgjsStop1014" stop-opacity="1" stop-color="#f05e47" offset="0.34"></stop><stop id="SvgjsStop1015" stop-opacity="1" stop-color="#dd2d73" offset="0.73"></stop><stop id="SvgjsStop1016" stop-opacity="1" stop-color="#ae32a7" offset="1"></stop></linearGradient></defs><path id="SvgjsPath1007" d="M1546 264C1557.6 264 1567 273.402 1567 285C1567 296.598 1557.6 306 1546 306C1534.4 306 1525 296.598 1525 285C1525 273.402 1534.4 264 1546 264Z " fill-opacity="0" fill="#ffffff" stroke-dasharray="0" stroke-linejoin="miter" stroke-linecap="butt" stroke-opacity="1" stroke="#00acec" stroke-miterlimit="50" stroke-width="2" clip-path="url(&quot;#SvgjsClipPath1009&quot;)" transform="matrix(1,0,0,1,-1525,-264)"></path><path id="SvgjsPath1010" d="M1546.5 277.531C1548.77 277.531 1549.04 277.54 1549.93 277.581C1550.76 277.619 1551.21 277.757 1551.51 277.874C1551.91 278.028 1552.19 278.21200000000005 1552.49 278.509C1552.79 278.807 1552.97 279.09000000000003 1553.13 279.487C1553.24 279.786 1553.38 280.23600000000005 1553.42 281.065C1553.46 281.961 1553.47 282.23 1553.47 284.5C1553.47 286.769 1553.46 287.038 1553.42 287.934C1553.38 288.76300000000003 1553.24 289.213 1553.13 289.51300000000003C1552.97 289.91 1552.7900000000002 290.19300000000004 1552.49 290.49C1552.19 290.788 1551.91 290.97200000000004 1551.51 291.12600000000003C1551.21 291.242 1550.76 291.38100000000003 1549.93 291.41900000000004C1549.04 291.46000000000004 1548.77 291.468 1546.5 291.468C1544.23 291.468 1543.96 291.46000000000004 1543.07 291.41900000000004C1542.24 291.38100000000003 1541.79 291.242 1541.49 291.12600000000003C1541.09 290.97200000000004 1540.81 290.788 1540.51 290.49C1540.21 290.193 1540.03 289.91 1539.87 289.51300000000003C1539.76 289.213 1539.62 288.76300000000003 1539.58 287.934C1539.54 287.038 1539.53 286.769 1539.53 284.5C1539.53 282.23 1539.54 281.961 1539.58 281.065C1539.62 280.236 1539.76 279.786 1539.87 279.487C1540.03 279.09000000000003 1540.2099999999998 278.807 1540.51 278.509C1540.81 278.212 1541.09 278.028 1541.49 277.874C1541.79 277.757 1542.24 277.619 1543.07 277.581C1543.96 277.54 1544.23 277.531 1546.5 277.531C1548.77 277.531 1546.5 277.531 1546.5 277.531ZM1546.5 276C1544.19 276 1543.9 276.01 1543 276.051C1542.09 276.092 1541.47 276.236 1540.93 276.44599999999997C1540.3700000000001 276.66299999999995 1539.9 276.95399999999995 1539.43 277.426C1538.95 277.899 1538.66 278.373 1538.45 278.93199999999996C1538.24 279.47299999999996 1538.0900000000001 280.09099999999995 1538.05 280.99499999999995C1538.01 281.90199999999993 1538 282.191 1538 284.49999999999994C1538 286.80799999999994 1538.01 287.09799999999996 1538.05 288.00399999999996C1538.09 288.90899999999993 1538.24 289.527 1538.45 290.068C1538.66 290.627 1538.95 291.101 1539.43 291.573C1539.9 292.046 1540.3700000000001 292.33599999999996 1540.93 292.554C1541.47 292.76399999999995 1542.0900000000001 292.907 1543 292.94899999999996C1543.9 292.98999999999995 1544.19 292.99999999999994 1546.5 292.99999999999994C1548.81 292.99999999999994 1549.1 292.98999999999995 1550 292.94899999999996C1550.91 292.907 1551.53 292.76399999999995 1552.07 292.554C1552.6299999999999 292.33599999999996 1553.1 292.046 1553.57 291.573C1554.05 291.101 1554.34 290.62699999999995 1554.55 290.068C1554.76 289.527 1554.9099999999999 288.909 1554.95 288.00399999999996C1554.99 287.09799999999996 1555 286.80799999999994 1555 284.49999999999994C1555 282.1909999999999 1554.99 281.90199999999993 1554.95 280.99499999999995C1554.91 280.09099999999995 1554.76 279.47299999999996 1554.55 278.93199999999996C1554.34 278.37299999999993 1554.05 277.89899999999994 1553.57 277.426C1553.1 276.954 1552.6299999999999 276.663 1552.07 276.44599999999997C1551.53 276.236 1550.9099999999999 276.092 1550 276.051C1549.1 276.01 1548.81 276 1546.5 276C1544.19 276 1546.5 276 1546.5 276ZM1546.5 280.135C1544.09 280.135 1542.14 282.089 1542.14 284.5C1542.14 286.911 1544.0900000000001 288.865 1546.5 288.865C1548.91 288.865 1550.86 286.911 1550.86 284.5C1550.86 282.089 1548.9099999999999 280.135 1546.5 280.135C1544.09 280.135 1546.5 280.135 1546.5 280.135ZM1546.5 287.333C1544.94 287.333 1543.67 286.06500000000005 1543.67 284.5C1543.67 282.935 1544.94 281.667 1546.5 281.667C1548.06 281.667 1549.33 282.93499999999995 1549.33 284.5C1549.33 286.065 1548.06 287.333 1546.5 287.333C1544.94 287.333 1546.5 287.333 1546.5 287.333ZM1552.06 279.962C1552.06 280.526 1551.6 280.98199999999997 1551.04 280.98199999999997C1550.47 280.98199999999997 1550.02 280.52599999999995 1550.02 279.962C1550.02 279.399 1550.47 278.943 1551.04 278.943C1551.6 278.943 1552.06 279.399 1552.06 279.962 " fill="#85b8fc" fill-opacity="1" transform="matrix(1,0,0,1,-1525,-264)"></path><path id="SvgjsPath1011" d="M1546.5 277.531C1548.77 277.531 1549.04 277.54 1549.93 277.581C1550.76 277.619 1551.21 277.757 1551.51 277.874C1551.91 278.028 1552.19 278.21200000000005 1552.49 278.509C1552.79 278.807 1552.97 279.09000000000003 1553.13 279.487C1553.24 279.786 1553.38 280.23600000000005 1553.42 281.065C1553.46 281.961 1553.47 282.23 1553.47 284.5C1553.47 286.769 1553.46 287.038 1553.42 287.934C1553.38 288.76300000000003 1553.24 289.213 1553.13 289.51300000000003C1552.97 289.91 1552.7900000000002 290.19300000000004 1552.49 290.49C1552.19 290.788 1551.91 290.97200000000004 1551.51 291.12600000000003C1551.21 291.242 1550.76 291.38100000000003 1549.93 291.41900000000004C1549.04 291.46000000000004 1548.77 291.468 1546.5 291.468C1544.23 291.468 1543.96 291.46000000000004 1543.07 291.41900000000004C1542.24 291.38100000000003 1541.79 291.242 1541.49 291.12600000000003C1541.09 290.97200000000004 1540.81 290.788 1540.51 290.49C1540.21 290.193 1540.03 289.91 1539.87 289.51300000000003C1539.76 289.213 1539.62 288.76300000000003 1539.58 287.934C1539.54 287.038 1539.53 286.769 1539.53 284.5C1539.53 282.23 1539.54 281.961 1539.58 281.065C1539.62 280.236 1539.76 279.786 1539.87 279.487C1540.03 279.09000000000003 1540.2099999999998 278.807 1540.51 278.509C1540.81 278.212 1541.09 278.028 1541.49 277.874C1541.79 277.757 1542.24 277.619 1543.07 277.581C1543.96 277.54 1544.23 277.531 1546.5 277.531C1548.77 277.531 1546.5 277.531 1546.5 277.531ZM1546.5 276C1544.19 276 1543.9 276.01 1543 276.051C1542.09 276.092 1541.47 276.236 1540.93 276.44599999999997C1540.3700000000001 276.66299999999995 1539.9 276.95399999999995 1539.43 277.426C1538.95 277.899 1538.66 278.373 1538.45 278.93199999999996C1538.24 279.47299999999996 1538.0900000000001 280.09099999999995 1538.05 280.99499999999995C1538.01 281.90199999999993 1538 282.191 1538 284.49999999999994C1538 286.80799999999994 1538.01 287.09799999999996 1538.05 288.00399999999996C1538.09 288.90899999999993 1538.24 289.527 1538.45 290.068C1538.66 290.627 1538.95 291.101 1539.43 291.573C1539.9 292.046 1540.3700000000001 292.33599999999996 1540.93 292.554C1541.47 292.76399999999995 1542.0900000000001 292.907 1543 292.94899999999996C1543.9 292.98999999999995 1544.19 292.99999999999994 1546.5 292.99999999999994C1548.81 292.99999999999994 1549.1 292.98999999999995 1550 292.94899999999996C1550.91 292.907 1551.53 292.76399999999995 1552.07 292.554C1552.6299999999999 292.33599999999996 1553.1 292.046 1553.57 291.573C1554.05 291.101 1554.34 290.62699999999995 1554.55 290.068C1554.76 289.527 1554.9099999999999 288.909 1554.95 288.00399999999996C1554.99 287.09799999999996 1555 286.80799999999994 1555 284.49999999999994C1555 282.1909999999999 1554.99 281.90199999999993 1554.95 280.99499999999995C1554.91 280.09099999999995 1554.76 279.47299999999996 1554.55 278.93199999999996C1554.34 278.37299999999993 1554.05 277.89899999999994 1553.57 277.426C1553.1 276.954 1552.6299999999999 276.663 1552.07 276.44599999999997C1551.53 276.236 1550.9099999999999 276.092 1550 276.051C1549.1 276.01 1548.81 276 1546.5 276C1544.19 276 1546.5 276 1546.5 276ZM1546.5 280.135C1544.09 280.135 1542.14 282.089 1542.14 284.5C1542.14 286.911 1544.0900000000001 288.865 1546.5 288.865C1548.91 288.865 1550.86 286.911 1550.86 284.5C1550.86 282.089 1548.9099999999999 280.135 1546.5 280.135C1544.09 280.135 1546.5 280.135 1546.5 280.135ZM1546.5 287.333C1544.94 287.333 1543.67 286.06500000000005 1543.67 284.5C1543.67 282.935 1544.94 281.667 1546.5 281.667C1548.06 281.667 1549.33 282.93499999999995 1549.33 284.5C1549.33 286.065 1548.06 287.333 1546.5 287.333C1544.94 287.333 1546.5 287.333 1546.5 287.333ZM1552.06 279.962C1552.06 280.526 1551.6 280.98199999999997 1551.04 280.98199999999997C1550.47 280.98199999999997 1550.02 280.52599999999995 1550.02 279.962C1550.02 279.399 1550.47 278.943 1551.04 278.943C1551.6 278.943 1552.06 279.399 1552.06 279.962 " fill="url(#SvgjsLinearGradient1012)" transform="matrix(1,0,0,1,-1525,-264)"></path></svg>